<?xml version="1.0" encoding="UTF-8"?>
<svg width="64" height="64" viewBox="0 0 64 64" xmlns="http://www.w3.org/2000/svg">
  <defs>
    <linearGradient id="g" x1="0" y1="0" x2="1" y2="1">
      <stop offset="0%" stop-color="#2563eb"/>
      <stop offset="100%" stop-color="#16a34a"/>
    </linearGradient>
    <filter id="s" x="-20%" y="-20%" width="140%" height="140%">
      <feDropShadow dx="0" dy="2" stdDeviation="2" flood-color="rgba(0,0,0,0.15)"/>
    </filter>
  </defs>
  <rect x="4" y="4" width="56" height="56" rx="14" fill="url(#g)" filter="url(#s)"/>
  <!-- Monograma LR em branco, bold -->
  <g fill="#ffffff">
    <!-- L -->
    <path d="M18 18h6v22h16v6H18z"/>
    <!-- R (perna diagonal) -->
    <path d="M34 18h10c6 0 10 3.6 10 9 0 4.3-2.5 7.3-6.5 8.6l6.5 10.4h-7l-6-9.6h-1.9V46h-6V18zm6 6v8h3.9c3 0 4.9-1.6 4.9-4s-1.9-4-4.9-4H40z"/>
  </g>
</svg>